<svg width="32" height="30" viewBox="0 0 32 30" fill="none" xmlns="http://www.w3.org/2000/svg">
<path id="Vector" d="M11.4507 16.7143L13.1093 12.6429L8.7494 10H14.1519L15.858 6.00003L17.5641 10H22.9666L18.5593 12.6429L20.2179 16.7143L15.858 14.1786L11.4507 16.7143ZM4.48424 30V18.9643C3.28368 17.9643 2.35167 16.8215 1.6882 15.5357C1.02473 14.25 0.692993 12.881 0.692993 11.4286C0.692993 8.23813 2.1621 5.53574 5.10032 3.32146C8.03854 1.10717 11.6244 3.05176e-05 15.858 3.05176e-05C20.0916 3.05176e-05 23.6774 1.10717 26.6157 3.32146C29.5539 5.53574 31.023 8.23813 31.023 11.4286C31.023 12.881 30.6913 14.25 30.0278 15.5357C29.3643 16.8215 28.4323 17.9643 27.2317 18.9643V30L15.858 27.1429L4.48424 30ZM15.858 20C19.0174 20 21.7028 19.1667 23.9144 17.5C26.126 15.8334 27.2317 13.8096 27.2317 11.4286C27.2317 9.04765 26.126 7.02384 23.9144 5.35717C21.7028 3.69051 19.0174 2.85717 15.858 2.85717C12.6986 2.85717 10.0131 3.69051 7.80159 5.35717C5.59002 7.02384 4.48424 9.04765 4.48424 11.4286C4.48424 13.8096 5.59002 15.8334 7.80159 17.5C10.0131 19.1667 12.6986 20 15.858 20ZM8.27549 25.75L15.858 24.2857L23.4405 25.75V21.3215C22.3347 21.7976 21.142 22.1726 19.8625 22.4465C18.583 22.7203 17.2481 22.8572 15.858 22.8572C14.4679 22.8572 13.133 22.7203 11.8535 22.4465C10.5739 22.1726 9.38127 21.7976 8.27549 21.3215V25.75Z" fill="#99CEFF"/>
</svg>
