<svg width="31" height="30" viewBox="0 0 31 30" fill="none" xmlns="http://www.w3.org/2000/svg">
<path id="Vector" d="M0.667999 30V24.375H3.701V3.75003C3.701 2.71878 3.99798 1.83597 4.59194 1.10159C5.18591 0.367218 5.89992 3.05176e-05 6.734 3.05176e-05H29.4815V3.75003H6.734V24.375H15.833V30H0.667999ZM20.3825 30C19.9528 30 19.5927 29.8203 19.302 29.461C19.0113 29.1016 18.866 28.6563 18.866 28.125V9.37503C18.866 8.84378 19.0113 8.39847 19.302 8.03909C19.5927 7.67972 19.9528 7.50003 20.3825 7.50003H29.4815C29.9112 7.50003 30.2713 7.67972 30.562 8.03909C30.8527 8.39847 30.998 8.84378 30.998 9.37503V28.125C30.998 28.6563 30.8527 29.1016 30.562 29.461C30.2713 29.8203 29.9112 30 29.4815 30H20.3825ZM21.899 24.375H27.965V11.25H21.899V24.375Z" fill="#99CEFF"/>
</svg>
