<svg width="31" height="30" viewBox="0 0 31 30" fill="none" xmlns="http://www.w3.org/2000/svg">
<path id="Vector" d="M4.28901 25.7628C2.95056 24.4387 1.90211 22.9086 1.14366 21.1725C0.385208 19.4364 0.00598145 17.6415 0.00598145 15.7877C0.00598145 13.9339 0.3629 12.1022 1.07674 10.2926C1.79058 8.48294 2.95056 6.78364 4.5567 5.19469C5.59771 4.16481 6.88411 3.28206 8.41589 2.54643C9.94766 1.8108 11.762 1.22966 13.8589 0.802996C15.9558 0.376332 18.3501 0.118863 21.0419 0.0305873C23.7337 -0.0576879 26.7452 0.0452999 30.0764 0.339551C30.3144 3.45861 30.3887 6.32755 30.2995 8.94639C30.2103 11.5652 29.9649 13.9266 29.5633 16.0305C29.1618 18.1344 28.5967 19.9734 27.868 21.5477C27.1393 23.1219 26.2395 24.4387 25.1688 25.498C23.5924 27.0575 21.9193 28.1977 20.1496 28.9187C18.3799 29.6396 16.573 30 14.7289 30C12.7956 30 10.9069 29.6249 9.0628 28.8745C7.21872 28.1242 5.62746 27.0869 4.28901 25.7628ZM9.28588 25.0566C10.1484 25.5568 11.0333 25.9173 11.9405 26.138C12.8476 26.3587 13.7771 26.469 14.7289 26.469C16.0971 26.469 17.4504 26.1968 18.7888 25.6525C20.1273 25.1081 21.4062 24.2327 22.6257 23.0263C23.1611 22.4966 23.7039 21.7537 24.2542 20.7973C24.8044 19.841 25.2803 18.5905 25.6818 17.0456C26.0834 15.5008 26.3882 13.6323 26.5964 11.4402C26.8046 9.24799 26.8344 6.63652 26.6857 3.60573C25.2283 3.54688 23.5849 3.52482 21.7557 3.53953C19.9265 3.55424 18.1047 3.69401 16.2904 3.95883C14.4761 4.22366 12.751 4.65032 11.1151 5.23883C9.47921 5.82733 8.14076 6.63652 7.09975 7.6664C5.7613 8.99052 4.83926 10.2999 4.33362 11.5946C3.82799 12.8893 3.57517 14.1399 3.57517 15.3463C3.57517 17.0824 3.90978 18.6052 4.57901 19.9146C5.24823 21.224 5.83566 22.1435 6.34129 22.6732C7.59051 20.3192 9.24126 18.0608 11.2935 15.8981C13.3458 13.7353 15.7402 11.9625 18.4765 10.5795C16.335 12.4333 14.4686 14.5298 12.8774 16.8691C11.2861 19.2084 10.0889 21.9376 9.28588 25.0566Z" fill="#99CEFF"/>
</svg>
