<svg width="31" height="30" viewBox="0 0 31 30" fill="none" xmlns="http://www.w3.org/2000/svg">
<path id="Vector" d="M10.509 2.85714V0H20.619V2.85714H10.509ZM13.879 18.5714H17.249V10H13.879V18.5714ZM15.564 30C13.4858 30 11.527 29.6607 9.68756 28.9821C7.8481 28.3036 6.24033 27.381 4.86424 26.2143C3.48816 25.0476 2.39993 23.6845 1.59956 22.125C0.79918 20.5655 0.398993 18.9048 0.398993 17.1429C0.398993 15.381 0.79918 13.7202 1.59956 12.1607C2.39993 10.6012 3.48816 9.23809 4.86424 8.07143C6.24033 6.90476 7.8481 5.98214 9.68756 5.30357C11.527 4.625 13.4858 4.28571 15.564 4.28571C17.3052 4.28571 18.9761 4.52381 20.5769 5C22.1776 5.47619 23.6801 6.16667 25.0842 7.07143L27.4432 5.07143L29.8022 7.07143L27.4432 9.07143C28.5104 10.2619 29.3248 11.5357 29.8865 12.8929C30.4482 14.25 30.729 15.6667 30.729 17.1429C30.729 18.9048 30.3288 20.5655 29.5284 22.125C28.7281 23.6845 27.6398 25.0476 26.2637 26.2143C24.8877 27.381 23.2799 28.3036 21.4404 28.9821C19.601 29.6607 17.6422 30 15.564 30ZM15.564 27.1429C18.8217 27.1429 21.6019 26.1667 23.9047 24.2143C26.2076 22.2619 27.359 19.9048 27.359 17.1429C27.359 14.381 26.2076 12.0238 23.9047 10.0714C21.6019 8.11905 18.8217 7.14286 15.564 7.14286C12.3063 7.14286 9.52608 8.11905 7.22324 10.0714C4.92041 12.0238 3.76899 14.381 3.76899 17.1429C3.76899 19.9048 4.92041 22.2619 7.22324 24.2143C9.52608 26.1667 12.3063 27.1429 15.564 27.1429Z" fill="#99CEFF"/>
</svg>
