<svg width="69" height="17" viewBox="0 0 69 17" fill="none" xmlns="http://www.w3.org/2000/svg">
<path d="M0.54 17L3.96 0.799999H5.56L9 17H7.5L6.7 12.66H2.84L2.02 17H0.54ZM3.06 11.56H6.5L4.78 2.82L3.06 11.56ZM11.3512 17V0.799999H12.8712V15.86H17.4712V17H11.3512ZM19.388 17V0.799999H23.268C24.2413 0.799999 25.008 0.979999 25.568 1.34C26.128 1.7 26.5213 2.2 26.748 2.84C26.988 3.48 27.108 4.23333 27.108 5.1C27.108 5.86 26.9813 6.56667 26.728 7.22C26.488 7.86 26.0813 8.37333 25.508 8.76C24.948 9.14667 24.208 9.34 23.288 9.34H20.908V17H19.388ZM20.908 8.2H22.848C23.5013 8.2 24.028 8.10667 24.428 7.92C24.8413 7.72 25.1413 7.39333 25.328 6.94C25.5146 6.48667 25.608 5.87333 25.608 5.1C25.608 4.27333 25.528 3.63333 25.368 3.18C25.208 2.71333 24.928 2.39333 24.528 2.22C24.1413 2.03333 23.588 1.94 22.868 1.94H20.908V8.2ZM29.4359 17V0.799999H30.9759V7.98H36.0759V0.799999H37.5959V17H36.0759V9.12H30.9759V17H29.4359ZM39.9525 17L43.3725 0.799999H44.9725L48.4125 17H46.9125L46.1125 12.66H42.2525L41.4325 17H39.9525ZM42.4725 11.56H45.9125L44.1925 2.82L42.4725 11.56ZM49.6238 17L53.1238 8.56L49.6638 0.799999H51.0838L53.9838 7.26L56.7638 0.799999H58.2238L54.6438 8.74L58.3438 17H56.8838L53.8038 10.16L51.0838 17H49.6238ZM60.4216 17V0.799999H64.3016C65.2749 0.799999 66.0416 0.979999 66.6016 1.34C67.1616 1.7 67.5549 2.2 67.7816 2.84C68.0216 3.48 68.1416 4.23333 68.1416 5.1C68.1416 5.86 68.0149 6.56667 67.7616 7.22C67.5216 7.86 67.1149 8.37333 66.5416 8.76C65.9816 9.14667 65.2416 9.34 64.3216 9.34H61.9416V17H60.4216ZM61.9416 8.2H63.8816C64.5349 8.2 65.0616 8.10667 65.4616 7.92C65.8749 7.72 66.1749 7.39333 66.3616 6.94C66.5482 6.48667 66.6416 5.87333 66.6416 5.1C66.6416 4.27333 66.5616 3.63333 66.4016 3.18C66.2416 2.71333 65.9616 2.39333 65.5616 2.22C65.1749 2.03333 64.6216 1.94 63.9016 1.94H61.9416V8.2Z" fill="#002E59"/>
</svg>
